# xmcd
#
# Track frame offsets:
#	150
#	22671
#	40673
#	58882
#	74277
#	92978
#	105475
#	119222
#	142758
#	157315
#	175529
#	191513
#
# Disc length: 2732 seconds
#
# Revision: 0
# Processed by: cddbd v1.5.2PL0 Copyright (c) Steve Scherf et al.
#
# Submitted via: isfdc 0.92
#
DISCID=a00aaa0c
DTITLE=James Taylor's Fourth Dimension - Picking Up Where We Left Off
DYEAR=2007
DGENRE=Acid Jazz
TTITLE0=Picking Up Where We Left Off
TTITLE1=Boot Up
TTITLE2=Easy Time
TTITLE3=Mr 2
TTITLE4=Never In My Wildest Dreams
TTITLE5=Acorn
TTITLE6=Showdown
TTITLE7=Dead Leg
TTITLE8=French Quarter Strut
TTITLE9=Like A Fool
TTITLE10=Mincemeat
TTITLE11=SpecialPlusExtra
EXTD=
EXTT0=
EXTT1=
EXTT2=
EXTT3=
EXTT4=
EXTT5=
EXTT6=
EXTT7=
EXTT8=
EXTT9=
EXTT10=
EXTT11=
PLAYORDER=
